<svg xmlns="http://www.w3.org/2000/svg" width="21" height="21" viewBox="0 0 21 21" fill="none">
<path d="M2.02841 3.69016C0.789058 4.92951 0.225173 6.85182 1.29442 8.525C2.17796 9.90758 3.72894 11.9224 6.4466 14.6401C9.16426 17.3577 11.1791 18.9087 12.5617 19.7922C14.2348 20.8615 16.1571 20.2976 17.3965 19.0582L18.718 17.7368C19.7431 16.7117 19.7431 15.0496 18.718 14.0245L16.9848 12.2913C16.2132 11.5197 15.02 11.3614 14.0739 11.9052C13.5118 12.2282 12.8028 12.1342 12.3444 11.6757L9.41093 8.74226C8.95248 8.28381 8.85843 7.57487 9.1815 7.01274C9.72524 6.06665 9.56695 4.87347 8.79535 4.10187L7.06218 2.3687C6.03705 1.34357 4.37499 1.34357 3.34987 2.3687L2.02841 3.69016ZM2.76903 7.58265C2.26149 6.78844 2.43466 5.75878 3.26585 4.92759L4.58731 3.60614C4.92901 3.26443 5.48304 3.26443 5.82474 3.60613L7.55791 5.3393C7.77035 5.55174 7.81393 5.88026 7.66423 6.14074C6.94713 7.38848 7.15588 8.96208 8.1735 9.9797L11.107 12.9132C12.1246 13.9308 13.6982 14.1395 14.9459 13.4224C15.2064 13.2727 15.5349 13.3163 15.7474 13.5287L17.4805 15.2619C17.8222 15.6036 17.8222 16.1576 17.4805 16.4993L16.1591 17.8208C15.3279 18.652 14.2982 18.8252 13.504 18.3176C12.2514 17.5171 10.3341 16.0527 7.68404 13.4026C5.03396 10.7525 3.56954 8.8353 2.76903 7.58265ZM12.25 2.62501C12.25 2.14177 12.6417 1.75001 13.125 1.75001C16.5077 1.75001 19.25 4.49227 19.25 7.87501C19.25 8.35826 18.8582 8.75001 18.375 8.75001C17.8917 8.75001 17.5 8.35826 17.5 7.87501C17.5 5.45877 15.5412 3.50001 13.125 3.50001C12.6417 3.50001 12.25 3.10826 12.25 2.62501ZM12.25 6.12501C12.25 5.64177 12.6417 5.25001 13.125 5.25001C14.5747 5.25001 15.75 6.42527 15.75 7.87501C15.75 8.35826 15.3582 8.75001 14.875 8.75001C14.3917 8.75001 14 8.35826 14 7.87501C14 7.39177 13.6082 7.00001 13.125 7.00001C12.6417 7.00001 12.25 6.60826 12.25 6.12501Z" fill="#019CDD"/>
</svg>