<svg width="115" height="18" viewBox="0 0 115 18" fill="none" xmlns="http://www.w3.org/2000/svg">
<path d="M9.82987 14.2028H7.40661V8.38758H2.42327V14.2028H0V0.986328H2.42327V6.29205H7.40661V0.986328H9.82987V14.2028Z" fill="#019CDD"/>
<path d="M20.7343 12.8715L19.2621 14.2983H14.3178L12.6567 12.6741V6.21551L14.3178 4.59131H18.8322L20.4933 6.21551V10.2664H14.865V11.8906L15.6467 12.655H18.1482L19.3012 11.5849L20.7343 12.8715ZM15.6467 6.23462L14.865 6.99895V8.69958H18.2915V6.99895L17.5098 6.23462H15.6467Z" fill="#019CDD"/>
<path d="M28.9425 4.59157L30.6037 6.21577V14.203H28.9816L28.4735 12.8845H28.3888L26.8515 14.2922H24.2458L22.5847 12.668V10.0565L24.2458 8.43233H28.3888V6.97373L27.6332 6.22851H25.3793L24.2979 7.21577L22.8192 5.91641L24.1807 4.58521H28.9425V4.59157ZM25.5552 10.082L24.7995 10.8272V11.8909L25.5812 12.6552H26.63L28.3888 11.1648V10.082H25.5552Z" fill="#019CDD"/>
<path d="M33.1309 0.986328H35.3457V14.2092H33.1309V0.986328Z" fill="#019CDD"/>
<path d="M38.0883 6.42578H36.8962V4.6933H38.0883V3.37483L39.7494 2.20923H40.2901V4.6933H42.2053V6.42578H40.2901V11.5086L41.0718 12.2729H42.7525V14.2028H39.7494L38.0883 12.5786V6.42578Z" fill="#019CDD"/>
<path d="M52.5824 14.2028H50.3676V7.07548L49.6054 6.33026H48.5762L46.8174 7.75064V14.2092H44.6025V0.986328H46.8174V6.00542L48.3547 4.59778H50.9213L52.5824 6.22198V14.2028Z" fill="#019CDD"/>
<path d="M58.3212 2.87812L57.3506 3.82716V5.61697L58.3212 6.57875H62.6271L64.7768 8.68065V12.2157L62.6466 14.2985H56.5298L54.6277 12.4513L56.2497 10.9036L57.7545 12.3112H61.3633L62.347 11.3622V9.52141L61.3633 8.57237H57.0705L54.9208 6.47047V2.97366L57.051 0.890869H62.6401L64.451 2.64246L62.8095 4.22844L61.3568 2.87812H58.3212Z" fill="#019CDD"/>
<path d="M74.7892 14.2028H72.5744V7.07548L71.8122 6.33026H70.783L69.0241 7.75064V14.2092H66.8093V0.986328H69.0241V6.00542L70.5615 4.59778H73.1281L74.7892 6.22198V14.2028Z" fill="#019CDD"/>
<path d="M83.7916 4.59131L85.4527 6.21551V12.6741L83.7916 14.2983H78.8865L77.2253 12.6741V6.21551L78.8865 4.59131H83.7916ZM80.1893 6.33016L79.4271 7.07538V11.8142L80.1893 12.5594H82.4823L83.2444 11.8142V7.07538L82.4823 6.33016H80.1893Z" fill="#019CDD"/>
<path d="M94.2924 4.59131L95.9535 6.21551V12.6741L94.2924 14.2983H91.6281L90.0908 12.8906V17.8906H87.876V4.68685H89.498L90.0061 6.00532H90.0908L91.6281 4.59768H94.2924V4.59131ZM92.9896 12.5594L93.7517 11.8142V7.07538L92.9896 6.33016H91.8561L90.0973 7.75053V11.1454L91.8561 12.5658H92.9896V12.5594Z" fill="#019CDD"/>
<path d="M106.363 12.8715L104.891 14.2983H99.9468L98.2856 12.6741V6.21551L99.9468 4.59131H104.461L106.122 6.21551V10.2664H100.494V11.8906L101.276 12.655H103.777L104.93 11.5849L106.363 12.8715ZM101.282 6.23462L100.5 6.99895V8.69958H103.927V6.99895L103.145 6.23462H101.282Z" fill="#019CDD"/>
<path d="M110.734 6.00548H110.819L112.259 4.68701H114.271V6.59783H112.408L110.812 7.9163V14.2029H108.598V4.68701H110.22L110.734 6.00548Z" fill="#019CDD"/>
</svg>
