<svg xmlns="http://www.w3.org/2000/svg" width="26" height="26" viewBox="0 0 26 26" fill="none">
  <path d="M16.2502 24.6458H9.7502C8.3202 24.6458 7.12853 24.505 6.12103 24.2017C5.7527 24.0934 5.51437 23.7358 5.53603 23.3567C5.80687 20.1175 9.08936 17.5716 13.0002 17.5716C16.911 17.5716 20.1827 20.1067 20.4644 23.3567C20.4969 23.7467 20.2585 24.0934 19.8794 24.2017C18.8719 24.505 17.6802 24.6458 16.2502 24.6458ZM7.2802 22.815C7.9952 22.9558 8.8077 23.0208 9.7502 23.0208H16.2502C17.1927 23.0208 18.0052 22.9558 18.7202 22.815C18.146 20.735 15.7735 19.1966 13.0002 19.1966C10.2269 19.1966 7.85437 20.735 7.2802 22.815Z" fill="white"/>
  <path d="M16.2501 2.16666H9.75008C4.33341 2.16666 2.16675 4.33332 2.16675 9.74999V16.25C2.16675 20.345 3.40175 22.5875 6.34842 23.4217C6.58675 20.605 9.47925 18.3841 13.0001 18.3841C16.5209 18.3841 19.4134 20.605 19.6517 23.4217C22.5984 22.5875 23.8334 20.345 23.8334 16.25V9.74999C23.8334 4.33332 21.6667 2.16666 16.2501 2.16666ZM13.0001 15.3508C10.8551 15.3508 9.12175 13.6067 9.12175 11.4617C9.12175 9.31668 10.8551 7.58332 13.0001 7.58332C15.1451 7.58332 16.8784 9.31668 16.8784 11.4617C16.8784 13.6067 15.1451 15.3508 13.0001 15.3508Z" stroke="white" stroke-width="1.5" stroke-linecap="round" stroke-linejoin="round"/>
  <path d="M12.9999 16.1633C10.4108 16.1633 8.30908 14.0509 8.30908 11.4617C8.30908 8.87253 10.4108 6.77084 12.9999 6.77084C15.5891 6.77084 17.6908 8.87253 17.6908 11.4617C17.6908 14.0509 15.5891 16.1633 12.9999 16.1633ZM12.9999 8.39584C11.3099 8.39584 9.93408 9.7717 9.93408 11.4617C9.93408 13.1625 11.3099 14.5383 12.9999 14.5383C14.6899 14.5383 16.0658 13.1625 16.0658 11.4617C16.0658 9.7717 14.6899 8.39584 12.9999 8.39584Z" fill="white"/>
</svg>