<svg width="20" height="20" viewBox="0 0 20 20" fill="none" xmlns="http://www.w3.org/2000/svg">
<g id="Mail2">
<path id="icon" d="M2.5 2.5C1.11929 2.5 0 3.61929 0 5V15C0 16.3807 1.11929 17.5 2.5 17.5H17.5C18.8807 17.5 20 16.3807 20 15V5C20 3.61929 18.8807 2.5 17.5 2.5H2.5ZM1.66667 5.44599L8.61325 10.077C9.453 10.6369 10.547 10.6369 11.3868 10.077L18.3333 5.44599V15C18.3333 15.4602 17.9602 15.8333 17.5 15.8333H2.5C2.03976 15.8333 1.66667 15.4602 1.66667 15V5.44599ZM17.2477 4.16667L10.4622 8.69029C10.1823 8.8769 9.81767 8.8769 9.53775 8.69029L2.75231 4.16667H17.2477Z" fill="black"/>
</g>
</svg>
