<svg width="25" height="25" viewBox="0 0 25 25" fill="none" xmlns="http://www.w3.org/2000/svg">
<g clip-path="url(#clip0_471_44)">
<path d="M15.1764 -5.17242H14.8356L-4.43066 14.0938H-4.10989L15.1764 -5.17242Z" fill="#0084B5"/>
<path d="M16.1388 -4.65118H15.798L-3.46826 14.6151H-3.14749L16.1388 -4.65118Z" fill="#0084B5"/>
<path d="M17.0809 -4.12994H16.7601L-2.5061 15.1363H-2.18533L17.0809 -4.12994Z" fill="#0084B5"/>
<path d="M18.0433 -3.60864H17.7225L-1.5437 15.6576H-1.22293L18.0433 -3.60864Z" fill="#0084B5"/>
<path d="M19.0055 -3.0874H18.6847L-0.581543 16.1788H-0.260773L19.0055 -3.0874Z" fill="#0084B5"/>
<path d="M19.9679 -2.56616H19.6471L0.36084 16.7001H0.701658L19.9679 -2.56616Z" fill="#0084B5"/>
<path d="M19.567 -0.621521H19.2462L-0.0400391 18.6648H0.300779L19.567 -0.621521Z" fill="#0084B5"/>
<path d="M19.1659 1.3432H18.8451L-0.441162 20.6295H-0.100344L19.1659 1.3432Z" fill="#0084B5"/>
<path d="M20.3888 1.5838H20.068L0.781738 20.8701H1.12256L20.3888 1.5838Z" fill="#0084B5"/>
<path d="M21.6119 1.82434H21.2711L2.00488 21.0906H2.32565L21.6119 1.82434Z" fill="#0084B5"/>
<path d="M22.8348 2.06494H22.494L3.22778 21.3312H3.54855L22.8348 2.06494Z" fill="#0084B5"/>
<path d="M22.6141 3.82916H22.2733L3.00708 23.1154H3.32785L22.6141 3.82916Z" fill="#0084B5"/>
<path d="M23.1957 4.81152H22.8549L3.58862 24.0778H3.90939L23.1957 4.81152Z" fill="#0084B5"/>
<path d="M23.797 5.65356H23.4762L4.20996 24.9198H4.53073L23.797 5.65356Z" fill="#0084B5"/>
<path d="M24.7794 6.1748H24.4386L5.17236 25.4611H5.49313L24.7794 6.1748Z" fill="#0084B5"/>
<path d="M25.3207 7.19727H24.9799L5.71362 26.4836H6.03439L25.3207 7.19727Z" fill="#0084B5"/>
<path d="M25.3207 8.62067H24.9799L5.71362 27.907H6.03439L25.3207 8.62067Z" fill="#0084B5"/>
<path d="M27.3456 8.13953H27.0048L7.73853 27.4258H8.07934L27.3456 8.13953Z" fill="#0084B5"/>
<path d="M27.3456 9.56293H27.0048L7.73853 28.8292H8.07934L27.3456 9.56293Z" fill="#0084B5"/>
<path d="M27.526 10.9863H27.1852L7.91895 30.2526H8.23971L27.526 10.9863Z" fill="#0084B5"/>
<path d="M26.8844 13.0513H26.5636L7.29736 32.3176H7.61813L26.8844 13.0513Z" fill="#0084B5"/>
<path d="M12.51 0C5.59342 0 0 5.59342 0 12.51C0 19.4066 5.59342 25.02 12.51 25.02C19.4266 25.02 25.02 19.4266 25.02 12.51C25 5.59342 19.4066 0 12.51 0ZM12.51 24.158C6.07458 24.158 0.862069 18.9455 0.862069 12.51C0.862069 6.07458 6.07458 0.862069 12.51 0.862069C18.9455 0.862069 24.158 6.07458 24.158 12.51C24.158 18.9455 18.9455 24.158 12.51 24.158Z" fill="#0183B3"/>
<path d="M15.1764 -5.17242H14.8356L-4.43066 14.0938H-4.10989L15.1764 -5.17242Z" fill="#0084B5"/>
<path d="M16.1388 -4.65118H15.798L-3.46826 14.6151H-3.14749L16.1388 -4.65118Z" fill="#0084B5"/>
<path d="M17.0809 -4.12994H16.7601L-2.5061 15.1363H-2.18533L17.0809 -4.12994Z" fill="#0084B5"/>
<path d="M18.0433 -3.60864H17.7225L-1.5437 15.6576H-1.22293L18.0433 -3.60864Z" fill="#0084B5"/>
<path d="M19.0055 -3.0874H18.6847L-0.581543 16.1788H-0.260773L19.0055 -3.0874Z" fill="#0084B5"/>
<path d="M19.9679 -2.56616H19.6471L0.36084 16.7001H0.701658L19.9679 -2.56616Z" fill="#0084B5"/>
<path d="M19.567 -0.621521H19.2462L-0.0400391 18.6648H0.300779L19.567 -0.621521Z" fill="#0084B5"/>
<path d="M19.1659 1.3432H18.8451L-0.441162 20.6295H-0.100344L19.1659 1.3432Z" fill="#0084B5"/>
<path d="M20.3888 1.5838H20.068L0.781738 20.8701H1.12256L20.3888 1.5838Z" fill="#0084B5"/>
<path d="M21.6119 1.82434H21.2711L2.00488 21.0906H2.32565L21.6119 1.82434Z" fill="#0084B5"/>
<path d="M22.8348 2.06494H22.494L3.22778 21.3312H3.54855L22.8348 2.06494Z" fill="#0084B5"/>
<path d="M22.6141 3.82916H22.2733L3.00708 23.1154H3.32785L22.6141 3.82916Z" fill="#0084B5"/>
<path d="M23.1957 4.81152H22.8549L3.58862 24.0778H3.90939L23.1957 4.81152Z" fill="#0084B5"/>
<path d="M23.797 5.65356H23.4762L4.20996 24.9198H4.53073L23.797 5.65356Z" fill="#0084B5"/>
<path d="M24.7794 6.1748H24.4386L5.17236 25.4611H5.49313L24.7794 6.1748Z" fill="#0084B5"/>
<path d="M25.3207 7.19727H24.9799L5.71362 26.4836H6.03439L25.3207 7.19727Z" fill="#0084B5"/>
<path d="M25.3207 8.62067H24.9799L5.71362 27.907H6.03439L25.3207 8.62067Z" fill="#0084B5"/>
<path d="M27.3456 8.13953H27.0048L7.73853 27.4258H8.07934L27.3456 8.13953Z" fill="#0084B5"/>
<path d="M27.3456 9.56293H27.0048L7.73853 28.8292H8.07934L27.3456 9.56293Z" fill="#0084B5"/>
<path d="M27.526 10.9863H27.1852L7.91895 30.2526H8.23971L27.526 10.9863Z" fill="#0084B5"/>
<path d="M26.8844 13.0513H26.5636L7.29736 32.3176H7.61813L26.8844 13.0513Z" fill="#0084B5"/>
<path d="M2.52599 19.5469L1.42334 17.2013L4.02959 8.88132C4.02959 8.88132 5.5332 5.79391 7.39768 4.85164C9.26215 3.90938 11.3873 3.10746 11.5075 0.641541H13.7529C13.7529 0.641541 14.4346 3.66881 17.522 4.59102C17.522 4.59102 20.9903 6.45549 21.5316 9.96391L23.6367 16.9607L21.7722 20.0281L18.2437 12.8107L17.7425 13.7731L17.6423 18.3039L17.963 23.1957C17.963 23.1957 11.9686 26.4234 7.41773 23.1155L7.6583 18.3641L7.17715 14.9358V13.0112L6.31508 14.6151L3.46825 20.3087L2.52599 19.5469Z" fill="white"/>
<path d="M1.30316 16.3793L3.78912 8.44026C3.78912 8.44026 4.87172 5.61347 7.83884 4.12991C10.806 2.64635 10.6857 1.68404 10.9263 0.641541H11.8084C11.8084 0.641541 11.9688 2.68645 9.10188 4.35044C9.10188 4.35044 5.33283 6.07458 4.571 8.70088L1.84446 17.6824C1.84446 17.6824 0.842051 17.4018 1.30316 16.3793Z" fill="#0084B5"/>
<path d="M23.8975 16.3793L21.4115 8.44026C21.4115 8.44026 20.3289 5.61347 17.3618 4.12991C14.3947 2.64635 14.4949 1.68404 14.2744 0.641541H13.3922C13.3922 0.641541 13.2319 2.68645 16.0987 4.35044C16.0987 4.35044 19.8678 6.07458 20.6296 8.70088L23.3562 17.6824C23.3562 17.6824 24.3586 17.4018 23.8975 16.3793Z" fill="#0084B5"/>
<path d="M18.705 10.3047C18.705 10.3047 17.7026 17.8628 18.3441 22.935L17.5221 23.1956C17.5221 23.1956 16.6601 16.2389 17.9432 10.1644L18.705 10.3047Z" fill="#0084B5"/>
<path d="M18.2638 12.2294L22.0529 19.6672L21.4314 20.409L18.0232 13.7129L18.2638 12.2294Z" fill="#0084B5"/>
<path d="M6.49561 10.3047C6.49561 10.3047 7.49801 17.8628 6.85647 22.935L7.67844 23.1956C7.67844 23.1956 8.54051 16.2389 7.25743 10.1644L6.49561 10.3047Z" fill="#0084B5"/>
<path d="M6.9368 12.2294L3.14771 19.6672L3.7692 20.409L7.17738 13.7129L6.9368 12.2294Z" fill="#0084B5"/>
<path d="M12.49 22.6944C14.6601 22.6944 16.4194 20.9352 16.4194 18.765C16.4194 16.5948 14.6601 14.8356 12.49 14.8356C10.3198 14.8356 8.56055 16.5948 8.56055 18.765C8.56055 20.9352 10.3198 22.6944 12.49 22.6944Z" fill="#18ADEE"/>
<path d="M12.9109 21.5517H12.0688V23.1155H12.9109V21.5517Z" fill="#0084B5"/>
<path d="M12.9109 18.4242H12.0688V19.9879H12.9109V18.4242Z" fill="#0084B5"/>
<path d="M12.9109 15.2967H12.0688V16.8604H12.9109V15.2967Z" fill="#0084B5"/>
<path d="M12.9109 12.1491H12.0688V13.7129H12.9109V12.1491Z" fill="#0084B5"/>
<path d="M12.9109 9.02161H12.0688V10.5854H12.9109V9.02161Z" fill="#0084B5"/>
<path d="M12.9109 5.8941H12.0688V7.45786H12.9109V5.8941Z" fill="#0084B5"/>
<path d="M12.9109 2.7666H12.0688V4.33035H12.9109V2.7666Z" fill="#0084B5"/>
<path d="M12.51 0C5.59342 0 0 5.59342 0 12.51C0 19.4066 5.59342 25.02 12.51 25.02C19.4266 25.02 25.02 19.4266 25.02 12.51C25 5.59342 19.4066 0 12.51 0ZM12.51 24.158C6.07458 24.158 0.862069 18.9455 0.862069 12.51C0.862069 6.07458 6.07458 0.862069 12.51 0.862069C18.9455 0.862069 24.158 6.07458 24.158 12.51C24.158 18.9455 18.9455 24.158 12.51 24.158Z" fill="#0183B3"/>
</g>
<defs>
<clipPath id="clip0_471_44">
<rect width="25" height="25" fill="white"/>
</clipPath>
</defs>
</svg>
